# xmcd CD database file
#
# Track frame offsets:
#	150
#	28390
#	78982
#	124837
#
# Disc length: 2442 seconds
#
# Revision: 0
# Processed by: cddbd v1.4PL0 Copyright (c) Steve Scherf et al.
# Submitted via: Feurio! 1.66 - http://www.feurio.com
#
DISCID=2e098804
DTITLE=Gocoo - Live 01
DYEAR=1900
DGENRE=Country
TTITLE0=Rai-zing
TTITLE1=Daichi no Kioku
TTITLE2=Ti
TTITLE3=Fu-zing
EXTD=Japaniche Daiko - Interpreten
EXTT0=
EXTT1=
EXTT2=
EXTT3=
PLAYORDER=
